<svg width="192" height="192" viewBox="0 0 24 24" fill="none" xmlns="http://www.w3.org/2000/svg">
<rect width="24" height="24" rx="4" fill="#111827"/>
<path d="M15.32 3.12001C14.18 3.30001 13.09 3.90001 12.21 4.78001C11.13 5.86001 10.74 7.33001 11.16 8.71001C10.5 8.52001 9.77 8.63001 9.17 9.04001C8.26 9.63001 7.82 10.66 7.96 11.7C7.33 11.49 6.64 11.53 6.06 11.83C4.68 12.55 4.01 14.16 4.31 15.67C4.31 17.51 5.76 18.99 7.58 19.08C7.58 19.78 7.87 20.44 8.38 20.91C9.21 21.65 10.43 21.84 11.45 21.35C12.19 21.82 13.09 22 14 22C16.23 22 18.12 20.43 18.5 18.25C19.33 18.06 20 17.31 20 16.42C20 15.35 19.16 14.5 18.1 14.41L18.01 14.4C18.01 14.05 17.94 13.7 17.81 13.37C17.29 11.9 16.03 10.83 14.54 10.65C14.73 9.99001 14.65 9.27001 14.32 8.65001C13.82 7.69001 12.86 7.05001 11.81 7.05001C12.02 6.46001 12.06 5.81001 11.91 5.20001C11.54 3.73001 12.56 2.36001 14.04 2.00001C14.51 1.89001 15 2.01001 15.52 2.30001C15.52 2.41001 15.42 2.77001 15.32 3.12001Z" fill="#4ade80"/>
</svg>
